<svg width="120" height="30" viewBox="0 0 120 30" fill="none" xmlns="http://www.w3.org/2000/svg">
<path fill-rule="evenodd" clip-rule="evenodd" d="M15 0C23.3161 0 30 6.68394 30 15C30 23.3161 23.3161 30 15 30C6.68394 30 0 23.3161 0 15C0 6.68394 6.68394 0 15 0ZM22.5389 12.4352H23.9378V11.0363H22.5389V12.4352ZM20.6736 11.0363H16.0104V12.4352H19.2746V18.886H20.6736V11.0363ZM9.48187 15.6995H14.1451V14.3005H9.48187V15.6995ZM9.48187 12.4352H14.1451V11.0363H9.48187V12.4352ZM6.29534 11.0363V18.886H7.6943V11.0363H6.29534Z" fill="#389FCC"/>
<path fill-rule="evenodd" clip-rule="evenodd" d="M38.1075 17.6424C37.7155 17.7202 37.6371 18.886 38.0291 18.886H41.7928C42.1849 18.886 42.1849 17.6424 41.7144 17.6424L40.8519 17.487V15.6217H42.7338C43.2042 15.6217 43.1258 14.145 42.7338 14.145H40.8519V12.202H43.1258L43.2826 13.2124C43.361 13.601 44.7724 13.6787 44.7724 13.2901V10.7253H37.8723C37.4803 10.7253 37.4803 11.9689 37.9507 12.0466L38.8132 12.202V17.487L38.1075 17.6424ZM44.4588 16.0103C44.4588 18.031 45.8702 19.0414 47.752 19.0414C49.6339 19.0414 51.0453 18.031 51.0453 16.0103C51.0453 13.9896 49.6339 12.9792 47.752 12.9792C45.9486 13.0569 44.4588 14.0673 44.4588 16.0103ZM47.752 17.6424C46.9679 17.6424 46.4975 16.8652 46.4975 16.0103C46.4975 15.1554 46.9679 14.3782 47.752 14.3782C48.5361 14.3782 49.0066 15.1554 49.0066 16.0103C49.0066 16.8652 48.6145 17.6424 47.752 17.6424ZM52.143 17.6424C51.6725 17.7202 51.6725 18.886 52.0646 18.886H55.5931C55.9851 18.886 55.9851 17.6424 55.5146 17.6424L54.7305 17.487V15.6994C54.7305 14.6114 55.3578 14.5336 56.1419 14.5336L57.2397 14.7668C57.6317 14.4559 57.7885 13.5233 57.5533 13.0569C56.4556 12.8238 55.5146 12.9792 54.7305 13.8342C54.7305 13.2901 54.4169 13.0569 53.868 13.0569H51.8294C51.4373 13.0569 51.4373 14.3005 51.9078 14.3782L52.8487 14.5336V17.487L52.143 17.6424ZM59.3568 17.0207C59.3568 18.4196 60.1409 19.1191 61.5522 19.1191C62.4932 19.1191 63.2773 18.8082 63.8261 18.5751C63.9046 18.1865 63.7477 17.5647 63.3557 17.487C62.9636 17.5647 62.65 17.7202 62.1011 17.7202C61.5522 17.7202 61.317 17.4093 61.317 16.8652V14.5336H62.8068C63.2773 14.5336 63.2773 13.2124 62.8068 13.2124H61.317V11.658C61.317 11.1917 59.6704 11.2694 59.592 11.8911L59.3568 13.1347H58.4158C57.9454 13.1347 57.9454 14.4559 58.4158 14.4559H59.3568V17.0207Z" fill="#031B22"/>
<path fill-rule="evenodd" clip-rule="evenodd" d="M68.2955 17.7203C67.8251 17.798 67.8251 18.9638 68.2171 18.9638H71.5103C71.9024 18.9638 71.9024 17.798 71.4319 17.7203L70.8047 17.5648C70.8047 16.0881 70.8047 14.6892 70.7262 13.2125H70.8047C70.8831 13.5234 71.0399 14.2229 71.1967 14.5337L72.8433 18.8861C73.3138 19.0415 73.9411 19.0415 74.4899 18.8861L76.0582 14.6115C76.215 14.0674 76.3718 13.4456 76.4502 13.2125H76.5286C76.5286 13.5234 76.4502 14.2229 76.4502 14.5337V17.5648L75.9013 17.7203C75.4309 17.798 75.4309 18.9638 75.8229 18.9638H79.4298C79.8219 18.9638 79.8218 17.7203 79.3514 17.7203L78.4889 17.5648V12.2798L79.273 12.1244C79.7434 12.0467 79.7434 10.8032 79.3514 10.8032H75.7445L74.1763 15.2332C73.9411 15.855 73.8627 16.3213 73.7843 16.7876C73.7058 16.3213 73.6274 15.855 73.4706 15.2332L71.9024 10.8032H68.0603C67.6682 10.8032 67.6682 12.0467 68.1387 12.1244L69.0012 12.2798V17.5648L68.2955 17.7203ZM80.3707 16.0881C80.3707 18.1089 81.7821 19.1192 83.664 19.1192C85.5458 19.1192 86.9572 18.1089 86.9572 16.0881C86.9572 14.0674 85.5458 13.057 83.664 13.057C81.7821 13.057 80.3707 14.0674 80.3707 16.0881ZM83.664 17.7203C82.8799 17.7203 82.4094 16.9431 82.4094 16.0881C82.4094 15.2332 82.8799 14.456 83.664 14.456C84.4481 14.456 84.9185 15.2332 84.9185 16.0881C84.9185 16.9431 84.4481 17.7203 83.664 17.7203ZM88.0549 17.7203C87.5845 17.798 87.5845 18.9638 87.9765 18.9638H91.505C91.897 18.9638 91.897 17.7203 91.4266 17.7203L90.6425 17.5648V15.6995C90.6425 14.7669 91.3482 14.5337 91.8186 14.5337C92.5243 14.5337 92.6811 15.0001 92.6811 15.4664V17.9534C92.6811 18.6529 92.7596 18.9638 93.4653 18.9638H95.5823C95.9744 18.9638 95.9744 17.7203 95.5039 17.6425L94.563 17.4871V15.2332C94.563 13.2902 93.4653 13.057 92.4459 13.057C91.7402 13.057 91.0345 13.2902 90.5641 13.8342C90.5641 13.2902 90.2504 13.1348 89.7016 13.1348H87.6629C87.2708 13.1348 87.2708 14.3783 87.7413 14.456L88.6038 14.6115V17.5648L88.0549 17.7203ZM97.1505 11.3472C97.1505 11.969 97.6994 12.513 98.3267 12.513C98.954 12.513 99.5029 11.969 99.5029 11.3472C99.5029 10.6477 98.954 10.1814 98.3267 10.1814C97.621 10.1814 97.1505 10.6477 97.1505 11.3472ZM96.9153 17.7203C96.4448 17.798 96.4448 18.9638 96.8369 18.9638H100.365C100.757 18.9638 100.757 17.7203 100.287 17.7203L99.5029 17.5648V14.1451C99.5029 13.4456 99.346 13.1348 98.7188 13.1348H96.6017C96.2096 13.1348 96.2096 14.3783 96.6801 14.456L97.5426 14.6115V17.5648L96.9153 17.7203ZM102.012 17.0208C102.012 18.4197 102.796 19.1192 104.207 19.1192C105.148 19.1192 105.933 18.8083 106.481 18.5752C106.56 18.1866 106.403 17.5648 106.011 17.4871C105.619 17.5648 105.305 17.7203 104.835 17.7203C104.286 17.7203 104.051 17.4094 104.051 16.8653V14.5337H105.54C106.011 14.5337 106.011 13.2125 105.54 13.2125H104.051V11.6581C104.051 11.1918 102.404 11.2695 102.326 11.8912L102.09 13.2125H101.149C100.679 13.2125 100.679 14.5337 101.149 14.5337H102.09V17.0208H102.012ZM106.795 16.0881C106.795 18.1089 108.206 19.1192 110.088 19.1192C111.97 19.1192 113.381 18.1089 113.381 16.0881C113.381 14.0674 111.97 13.057 110.088 13.057C108.206 13.057 106.795 14.0674 106.795 16.0881ZM110.088 17.7203C109.304 17.7203 108.834 16.9431 108.834 16.0881C108.834 15.2332 109.226 14.456 110.088 14.456C110.872 14.456 111.343 15.2332 111.343 16.0881C111.343 16.9431 110.872 17.7203 110.088 17.7203ZM114.479 17.7203C114.009 17.798 114.009 18.9638 114.401 18.9638H117.929C118.321 18.9638 118.321 17.7203 117.851 17.7203L117.145 17.5648V15.7773C117.145 14.6892 117.772 14.6115 118.557 14.6115L119.576 14.8446C119.968 14.5337 120.125 13.6011 119.89 13.1348C118.792 12.9016 117.851 13.057 117.067 13.912C117.067 13.3679 116.753 13.1348 116.204 13.1348H114.166C113.774 13.1348 113.774 14.3783 114.244 14.456L115.185 14.6115V17.5648L114.479 17.7203Z" fill="#031B22"/>
</svg>
